:SAMPLES-PER-SECOND 30
:FULLY-SPECIFIED
:DEGREES
1
root  -113.983 38.0305 -1.15527 49.6037 85.4823 47.77
RightUpLeg  -2.45639 0.343107 -2.96087
RightLeg  52.1549 7.94315 -3.32607
RightFoot  32.2859 -3.68179 8.7024
RightToes  1.74622e-010 -3.18055e-015 8.94531e-016
Spine  -3.08452 1.30757 0.15776
Spine1  15.4912 3.40097 -7.32784
HEad  -13.5184 -3.29234 3.87692
LeftShoulder1  0 0 -2.47967e-037
LeftArm  -19.1373 36.2875 -75.0366
LeftForeArm  3.4288 -1.86644 -5.19858
LeftHand  1.18306 10.4647 -9.0911
RightShoulder  -2.48481e-017 0 -8.08114e-019
RightArm  19.7447 -8.75684 87.3095
RightForeArm  -49.5479 22.0117 -20.5812
RightHand  1.15445 -10.3042 -4.17995
LeftUpLeg  -27.35 -1.11154 -6.44174
LeftLeg  25.0172 -4.23699 2.63718
LeftFoot  -0.50016 -0.34664 3.05013
LeftToes  -1.45516e-011 5.53925e-011 1.30052e-011
2
root  -112.36 38.4457 -1.20005 44.7112 85.1358 42.8656
RightUpLeg  -7.5148 1.62856 -2.54333
RightLeg  55.6303 9.92964 -0.762681
RightFoot  24.737 -2.16723 6.23552
RightToes  1.74622e-010 -3.18055e-015 8.94531e-016
Spine  -4.02769 0.787713 -0.310684
Spine1  16.1196 2.65362 -6.94469
HEad  -12.2239 -2.71778 3.29303
LeftShoulder1  0 0 -2.47967e-037
LeftArm  -17.4172 28.8961 -77.8672
LeftForeArm  3.37614 -2.51374 -5.72382
LeftHand  1.20988 9.45638 -4.49876
RightShoulder  -2.48481e-017 0 -8.08114e-019
RightArm  14.9598 -11.6372 88.9784
RightForeArm  -46.7106 20.2363 -15.6576
RightHand  1.29127 -11.1314 -4.79315
LeftUpLeg  -23.9463 -0.488334 -6.37406
LeftLeg  24.1118 -4.18171 2.49694
LeftFoot  -2.50935 -0.265914 2.70158
LeftToes  -1.45516e-011 5.53925e-011 1.30052e-011
3
root  -110.335 38.9025 -1.24874 33.722 85.01 32.1901
RightUpLeg  -13.1284 3.04251 -1.3979
RightLeg  56.2481 11.3282 1.50821
RightFoot  16.549 -1.06556 4.08404
RightToes  1.74622e-010 -3.18055e-015 8.94531e-016
Spine  -3.2187 -0.276552 -1.29019
Spine1  14.3574 0.818923 -5.38319
HEad  -9.25392 -0.81043 1.53438
LeftShoulder1  0 0 -2.47967e-037
LeftArm  -11.1364 21.2782 -80.3442
LeftForeArm  -2.49271 -4.51535 -6.59661
LeftHand  1.07158 7.8283 -1.55414
RightShoulder  -2.48481e-017 0 -8.08114e-019
RightArm  1.4831 -15.8073 90.0819
RightForeArm  -33.833 18.1189 -6.72436
RightHand  1.29151 -11.2728 -4.28957
LeftUpLeg  -19.3028 -0.799395 -5.57537
LeftLeg  22.5301 -2.96193 2.73973
LeftFoot  -4.70002 -0.154655 1.8448
LeftToes  -1.45516e-011 5.53925e-011 1.30052e-011
4
root  -108.261 39.2068 -1.28255 24.4846 85.4345 23.5225
RightUpLeg  -17.4805 3.07517 0.0150408
RightLeg  53.2388 10.8613 0.768039
RightFoot  10.5219 -0.936703 4.43789
RightToes  1.74622e-010 -3.18055e-015 8.94531e-016
Spine  -2.65568 -1.76374 -3.52759
Spine1  12.8042 -1.94678 -1.77838
HEad  -6.5056 2.20015 -0.661429
LeftShoulder1  0 0 -2.47967e-037
LeftArm  -2.25344 15.1785 -81.5248
LeftForeArm  -12.3427 -9.50761 -5.27112
LeftHand  1.01204 7.39027 -2.24101
RightShoulder  -2.48481e-017 0 -8.08114e-019
RightArm  -4.64649 -20.2862 89.8742
RightForeArm  -25.9566 15.5395 -1.47246
RightHand  1.14613 -10.5442 -3.1009
LeftUpLeg  -14.383 -2.13998 -4.74178
LeftLeg  20.9548 -1.25326 3.24186
LeftFoot  -6.91028 -0.0692753 0.841932
LeftToes  -1.45516e-011 5.53925e-011 1.30052e-011
5
root  -106.141 39.2544 -1.25988 19.3503 85.7546 18.9138
RightUpLeg  -21.1848 2.80643 0.898278
RightLeg  48.4998 9.62773 -0.689217
RightFoot  3.46286 -0.569083 3.90174
RightToes  1.74622e-010 -3.18055e-015 8.94531e-016
Spine  -4.77535 -3.48239 -7.08019
Spine1  15.1409 -4.934 2.16632
HEad  -5.65794 4.95687 -2.44918
LeftShoulder1  0 0 -2.47967e-037
LeftArm  10.6934 7.40692 -81.0036
LeftForeArm  -23.4377 -18.306 1.99691
LeftHand  0.939169 6.70561 -3.33624
RightShoulder  -2.48481e-017 0 -8.08114e-019
RightArm  -2.85197 -24.2056 89.0846
RightForeArm  -26.0464 15.0561 -0.39282
RightHand  1.12905 -10.6625 -2.24309
LeftUpLeg  -9.95778 -2.22119 -4.67697
LeftLeg  20.4361 -1.14653 3.9107
LeftFoot  -9.51277 -0.0344848 0.237761
LeftToes  -1.45516e-011 5.53925e-011 1.30052e-011
6
root  -104.003 39.3324 -1.23013 6.44694 86.3171 6.42906
RightUpLeg  -23.9531 2.2144 1.99239
RightLeg  40.8061 8.54587 -1.48172
RightFoot  0.859493 -0.33508 2.69911
RightToes  1.74622e-010 -3.18055e-015 8.94531e-016
Spine  -4.36588 -5.29257 -9.81939
Spine1  14.2998 -7.97665 6.80067
HEad  -4.91679 7.33745 -4.23915
LeftShoulder1  0 0 -2.47967e-037
LeftArm  26.8872 -1.08337 -78.1653
LeftForeArm  -37.3481 -23.5327 11.2022
LeftHand  0.832717 5.69135 -3.59554
RightShoulder  -2.48481e-017 0 -8.08114e-019
RightArm  2.52211 -29.6154 87.4698
RightForeArm  -30.8841 16.6679 -2.52018
RightHand  1.1704 -11.2079 -1.66725
LeftUpLeg  -5.11367 -1.27602 -4.04242
LeftLeg  18.6791 -2.01536 4.22458
LeftFoot  -11.5062 -0.0401438 0.394423
LeftToes  -1.45516e-011 5.53925e-011 1.30052e-011
7
root  -101.937 39.297 -1.19161 -6.70305 86.9851 -6.54195
RightUpLeg  -25.3862 0.583068 2.72347
RightLeg  31.5887 10.1148 0.271527
RightFoot  -0.624437 -0.105801 1.02664
RightToes  1.74622e-010 -3.18055e-015 8.94531e-016
Spine  -3.07665 -7.10641 -12.3198
Spine1  12.5301 -10.7999 11.292
HEad  -4.48105 9.73703 -5.61033
LeftShoulder1  0 0 -2.47967e-037
LeftArm  31.5792 -11.0315 -73.4446
LeftForeArm  -40.6214 -24.5722 14.6982
LeftHand  0.763606 5.18755 -2.77762
RightShoulder  -2.48481e-017 0 -8.08114e-019
RightArm  1.34204 -35.266 84.9558
RightForeArm  -31.4862 17.1988 -4.09139
RightHand  1.12574 -10.9254 -1.36097
LeftUpLeg  -0.670604 -0.691995 -3.42845
LeftLeg  16.761 -2.22764 4.59098
LeftFoot  -13.3699 -0.0416565 0.143083
LeftToes  -1.45516e-011 5.53925e-011 1.30052e-011
8
root  -99.8496 39.0326 -1.1145 -6.59435 87.5752 -6.58229
RightUpLeg  -27.2391 -1.74264 3.33624
RightLeg  20.5337 11.4255 0.926879
RightFoot  1.67762 -0.0748442 0.546263
RightToes  1.74622e-010 -3.18055e-015 8.94531e-016
Spine  -2.32539 -9.01533 -16.028
Spine1  11.3419 -13.6645 16.1116
HEad  -4.58002 12.2542 -6.82218
LeftShoulder1  0 0 -2.47967e-037
LeftArm  27.9884 -20.9201 -67.1964
LeftForeArm  -36.1183 -24.0662 13.9783
LeftHand  0.657348 4.46821 -1.78979
RightShoulder  -2.48481e-017 0 -8.08114e-019
RightArm  -6.2092 -40.3009 81.436
RightForeArm  -28.2355 16.4888 -4.16406
RightHand  1.08032 -10.4798 -1.48137
LeftUpLeg  3.15812 -0.417829 -3.3751
LeftLeg  15.685 -1.94091 4.72297
LeftFoot  -15.2673 -0.0621268 -1.04496
LeftToes  -1.45516e-011 5.53925e-011 1.30052e-011
9
root  -97.7336 38.7378 -0.995773 -1.62354 86.9979 -2.04624
RightUpLeg  -28.2617 -1.93786 3.33815
RightLeg  8.65016 10.202 1.75333
RightFoot  3.14726 -0.400319 2.78122
RightToes  1.74622e-010 -3.18055e-015 8.94531e-016
Spine  -1.89917 -10.6101 -19.7784
Spine1  10.7746 -16.3166 21.0274
HEad  -4.98772 14.9872 -8.8333
LeftShoulder1  0 0 -2.47967e-037
LeftArm  18.5582 -29.5203 -58.3208
LeftForeArm  -26.7252 -22.3691 10.9939
LeftHand  0.516075 3.45418 -1.26546
RightShoulder  -2.48481e-017 0 -8.08114e-019
RightArm  -13.0864 -44.4931 76.9747
RightForeArm  -27.3893 15.9555 -4.8217
RightHand  1.14103 -10.8248 -2.03442
LeftUpLeg  6.92044 0.020952 -3.16157
LeftLeg  14.558 -1.60767 4.26223
LeftFoot  -15.879 -0.100294 -2.44391
LeftToes  -1.45516e-011 5.53925e-011 1.30052e-011
10
root  -95.534 38.439 -0.843174 -1.3892 84.8353 -2.20423
RightUpLeg  -28.4041 3.05954 1.37032
RightLeg  -0.522279 1.34238 3.84126
RightFoot  3.13002 -0.86741 6.09457
RightToes  1.74622e-010 -3.18055e-015 8.94531e-016
Spine  -1.30639 -11.7082 -22.4776
Spine1  10.1982 -18.4211 25.122
HEad  -5.5901 19.1121 -12.1298
LeftShoulder1  0 0 -2.47967e-037
LeftArm  5.99775 -35.9904 -46.5808
LeftForeArm  -16.9914 -19.6344 7.25478
LeftHand  0.42202 2.97148 -0.425895
RightShoulder  -2.48481e-017 0 -8.08114e-019
RightArm  -17.3548 -47.5772 71.4694
RightForeArm  -29.1589 15.7591 -6.16717
RightHand  1.23368 -11.3717 -2.69377
LeftUpLeg  10.6221 0.397398 -2.97222
LeftLeg  14.0009 -0.681412 3.93136
LeftFoot  -15.1799 -0.120001 -4.68265
LeftToes  -1.45516e-011 5.53925e-011 1.30052e-011
11
root  -93.164 38.1017 -0.688743 -3.72895 81.971 -4.76535
RightUpLeg  -28.4556 4.36485 3.07586
RightLeg  -3.28849 -4.41872 4.50001
RightFoot  1.21146 -0.654448 5.09557
RightToes  1.74622e-010 -3.18055e-015 8.94531e-016
Spine  -0.688866 -12.6737 -23.3629
Spine1  9.55569 -20.0843 27.9105
HEad  -6.58168 24.5032 -14.6595
LeftShoulder1  0 0 -2.47967e-037
LeftArm  -6.08543 -39.6643 -33.9165
LeftForeArm  -10.5821 -16.1049 4.40506
LeftHand  0.33666 2.87832 1.35256
RightShoulder  -2.48481e-017 0 -8.08114e-019
RightArm  -21.6267 -49.6412 65.0622
RightForeArm  -30.508 15.1755 -7.52118
RightHand  1.26583 -11.4958 -3.06436
LeftUpLeg  14.0369 0.338666 -2.82298
LeftLeg  14.754 1.47488 3.92284
LeftFoot  -12.8037 0.0267005 -9.46221
LeftToes  -1.45516e-011 5.53925e-011 1.30052e-011
12
root  -90.6973 37.7739 -0.554994 -8.0867 78.9779 -9.33819
RightUpLeg  -28.7199 6.23627 5.7627
RightLeg  0.231535 -9.1166 3.14103
RightFoot  0.481494 0.156886 -1.17716
RightToes  1.74622e-010 -3.18055e-015 8.94531e-016
Spine  0.292246 -13.5287 -22.0159
Spine1  8.60705 -21.2651 29.4325
HEad  -5.06266 26.6106 -17.0668
LeftShoulder1  0 0 -2.47967e-037
LeftArm  -14.4567 -41.3314 -22.5386
LeftForeArm  -8.29915 -12.3813 3.15268
LeftHand  0.212044 2.56067 3.1388
RightShoulder  -2.48481e-017 0 -8.08114e-019
RightArm  -25.099 -51.2482 58.1031
RightForeArm  -32.6144 14.5392 -9.51194
RightHand  1.24042 -11.2683 -3.14239
LeftUpLeg  16.172 1.70292 -1.26873
LeftLeg  17.8565 2.41057 3.79714
LeftFoot  -6.43746 0.925236 -15.0701
LeftToes  -1.45516e-011 5.53925e-011 1.30052e-011
13
root  -88.2797 37.4021 -0.41797 -12.3567 75.4367 -13.6448
RightUpLeg  -29.8334 7.37103 9.43616
RightLeg  8.80688 -8.06157 -0.377958
RightFoot  2.31281 0.995115 -7.33642
RightToes  1.74622e-010 -3.18055e-015 8.94531e-016
Spine  2.44234 -13.6824 -19.305
Spine1  6.7093 -21.342 30.2548
HEad  -4.25969 28.6011 -18.9918
LeftShoulder1  0 0 -2.47967e-037
LeftArm  -18.1747 -42.4364 -12.5232
LeftForeArm  -8.38933 -8.88062 3.08682
LeftHand  0.0829739 2.05792 4.10001
RightShoulder  -2.48481e-017 0 -8.08114e-019
RightArm  -26.2472 -52.301 50.7686
RightForeArm  -37.067 14.3141 -12.0676
RightHand  1.21808 -11.0384 -3.32027
LeftUpLeg  15.4667 6.45108 2.2133
LeftLeg  25.4866 -1.30338 4.18086
LeftFoot  5.80186 2.78239 -16.5885
LeftToes  -1.45516e-011 5.53925e-011 1.30052e-011
